<svg xmlns="http://www.w3.org/2000/svg" fill="none" viewBox="-0.5 -0.5 16 16" stroke-linecap="round" stroke-linejoin="round" stroke="#e75a97" id="Cupcake--Streamline-Mynaui" height="16" width="16"><desc>Cupcake Streamline Icon: https://streamlinehq.com</desc><path d="m3.125 8.75 0.5025000000000001 3.5162500000000003C3.7175000000000002 12.897499999999999 3.9425 13.125 4.615625 13.125H6.25m-3.125 -4.375h2.5m-2.5 0c-0.814375 -0.3775 -1.25 -1.3975000000000002 -1.25 -2.29125 0 -0.96 0.64375 -1.78125 1.5562500000000001 -2.123125A0.491875 0.491875 0 0 0 3.75 3.88c0 -0.7906249999999999 0.7000000000000001 -1.431875 1.5625 -1.431875 0.41750000000000004 0 0.8187500000000001 0.20125 1.213125 -0.04125A3.645625 3.645625 0 0 1 8.4375 1.875C10.33625 1.875 11.875 3.2856249999999996 11.875 5.02625c0 0.785 1.25 0.9962500000000001 1.25 2.005 0 0.798125 -0.44499999999999995 1.525 -1.25 1.71875m0 0h-2.5m2.5 0 -0.5025000000000001 3.5175C11.2775 12.933125 11.021875000000001 13.125 10.384374999999999 13.125H8.75m0.625 -4.375H5.625m3.75 0 -0.625 4.375m-3.125 -4.375 0.625 4.375m0 0h2.5" stroke-width="1"></path></svg>